<?xml version="1.0"?>
<svg xmlns="http://www.w3.org/2000/svg" xmlns:xlink="http://www.w3.org/1999/xlink" xmlns:svgjs="http://svgjs.com/svgjs" version="1.1" width="512" height="512" x="0" y="0" viewBox="0 0 64 64" style="enable-background:new 0 0 512 512" xml:space="preserve" class=""><g><path xmlns="http://www.w3.org/2000/svg" d="M63.433,33.1a1,1,0,0,0-1.058.12L47.684,44.973,22.266,43a9.581,9.581,0,0,0-6.371,2.423L.335,59.253A1,1,0,0,0,0,60v3a1,1,0,0,0,1,1H17a1,1,0,0,0,.748-.336L25.449,55H48a1,1,0,0,0,.682-.269l15-14A1,1,0,0,0,64,40V34A1,1,0,0,0,63.433,33.1Z" fill="#070707" data-original="#000000" style="" class=""/><path xmlns="http://www.w3.org/2000/svg" d="M38.217,42.232a27.569,27.569,0,0,0,2.528-2.566,3.239,3.239,0,0,0,.479-3.817,3.02,3.02,0,0,0-2.062-1.343,3.518,3.518,0,0,0-2.732.67l-9.982,6.143Z" fill="#070707" data-original="#000000" style="" class=""/><path xmlns="http://www.w3.org/2000/svg" d="M56.389,12.543l0,.007c.038-.048.082-.1.119-.144,3.241-4.154,4.226-7.433,2.849-9.481-.695-1.034-2.335-2.167-6.209-1.7a1,1,0,0,0,.238,1.986c2.206-.269,3.777.038,4.311.833.575.856.281,2.924-2.09,6.229l.008.021-.011-.017A17.021,17.021,0,0,0,40,0c3.442,0,6.436,3.673,7.95,9.05A17.692,17.692,0,0,1,54.2,12.067h0q-.638.762-1.352,1.531a14.94,14.94,0,0,0-4.372-2.269,30.411,30.411,0,0,1,.5,4.67h1.464q-.816.761-1.694,1.515l-.018.016q-.877.753-1.811,1.5c.023-.339.047-.678.059-1.026H41v5.232q-1.13.719-2.229,1.362l-.007,0q-1.1.644-2.162,1.209-1.167-.126-2.272-.334c.149.435.309.851.478,1.249q-.939.459-1.838.857a22.269,22.269,0,0,1-.919-2.63C26.673,23.437,23,20.443,23,17a16.938,16.938,0,0,0,5.334,12.332c.009.01.017.023.026.034l-.035-.031c-4.495,1.379-7.628,1.316-8.438.11a2.778,2.778,0,0,1-.068-2.171,1,1,0,0,0-1.924-.549,4.471,4.471,0,0,0,.332,3.835c.855,1.273,2.453,1.838,4.533,1.837a23.442,23.442,0,0,0,7.409-1.545l-.027-.021c.011.007.025.012.035.018h0A16.889,16.889,0,0,0,40,34c-2.38,0-4.545-1.758-6.155-4.619h0c.612-.274,1.231-.57,1.851-.874A7.183,7.183,0,0,0,39,31.794V26.764q1.131-.638,2.25-1.326l.2-.126c.728-.451,1.452-.912,2.163-1.39.1-.064.186-.131.28-.2.831-.113,1.632-.258,2.393-.437.112-.479.208-.978.3-1.486.77-.577,1.522-1.16,2.247-1.753-.086.9-.2,1.776-.358,2.619,3.362-1.153,5.666-2.909,6.32-4.67H51.22c.733-.664,1.426-1.332,2.088-2h1.487a4.279,4.279,0,0,0-.546-.971q.73-.781,1.383-1.556h0A5.59,5.59,0,0,1,57,17a16.917,16.917,0,0,0-.61-4.447Z" fill="#070707" data-original="#000000" style="" class=""/><path xmlns="http://www.w3.org/2000/svg" d="M39,10.027a27.3,27.3,0,0,0-5.29.683A27.292,27.292,0,0,0,33.027,16H39Z" fill="#070707" data-original="#000000" style="" class=""/><path xmlns="http://www.w3.org/2000/svg" d="M39,23.973V18H33.027a27.292,27.292,0,0,0,.683,5.29A27.3,27.3,0,0,0,39,23.973Z" fill="#070707" data-original="#000000" style="" class=""/><path xmlns="http://www.w3.org/2000/svg" d="M46.29,10.71A27.3,27.3,0,0,0,41,10.027V16h5.973A27.292,27.292,0,0,0,46.29,10.71Z" fill="#070707" data-original="#000000" style="" class=""/><path xmlns="http://www.w3.org/2000/svg" d="M32.05,9.05C33.564,3.673,36.558,0,40,0A17.019,17.019,0,0,0,23,17C23,13.557,26.673,10.563,32.05,9.05Z" fill="#070707" data-original="#000000" style="" class=""/><path xmlns="http://www.w3.org/2000/svg" d="M41,31.794c1.762-.655,3.517-2.958,4.67-6.32a30.4,30.4,0,0,1-4.67.5Z" fill="#070707" data-original="#000000" style="" class=""/><path xmlns="http://www.w3.org/2000/svg" d="M47.95,24.95C46.436,30.327,43.442,34,40,34A17.019,17.019,0,0,0,57,17C57,20.443,53.327,23.437,47.95,24.95Z" fill="#070707" data-original="#000000" style="" class=""/><path xmlns="http://www.w3.org/2000/svg" d="M39,2.206c-1.762.655-3.517,2.958-4.67,6.32a30.4,30.4,0,0,1,4.67-.5Z" fill="#070707" data-original="#000000" style="" class=""/><path xmlns="http://www.w3.org/2000/svg" d="M31.526,22.67a30.411,30.411,0,0,1-.5-4.67H25.205C25.86,19.762,28.164,21.517,31.526,22.67Z" fill="#070707" data-original="#000000" style="" class=""/><path xmlns="http://www.w3.org/2000/svg" d="M41,2.206V8.027a30.4,30.4,0,0,1,4.67.5C44.517,5.164,42.762,2.86,41,2.206Z" fill="#070707" data-original="#000000" style="" class=""/><path xmlns="http://www.w3.org/2000/svg" d="M31.526,11.33c-3.362,1.153-5.666,2.909-6.32,4.67h5.821A30.411,30.411,0,0,1,31.526,11.33Z" fill="#070707" data-original="#000000" style="" class=""/><path xmlns="http://www.w3.org/2000/svg" d="M20,25a1,1,0,0,0,.765-.355l1.214-1.44a1,1,0,0,0-1.529-1.289l-1.214,1.44A1,1,0,0,0,20,25Z" fill="#070707" data-original="#000000" style="" class=""/></g></svg>
